# xmcd
#
# Track frame offsets:
#	150
#	14425
#	28547
#	43430
#	54987
#	71832
#	86927
#	101377
#	109685
#	124130
#	135450
#	142330
#	162687
#	175087
#	189527
#	204942
#	219547
#	227860
#	241785
#	248180
#
# Disc length: 3494 seconds
#
# Revision: 1
# Processed by: cddbd v1.5.2PL0 Copyright (c) Steve Scherf et al.
# Submitted via: audiograbber 1.83.01
#
DISCID=280da414
DTITLE=Frank Sinatra - The Frank Sinatra Collection [CD2]
DYEAR=1900
DGENRE=
TTITLE0=Somewhere A Voice Is Calling
TTITLE1=Light A Candle In The Chapel
TTITLE2=Blue Skies
TTITLE3=Last Call For Love
TTITLE4=This Love Of Mine
TTITLE5=Nancy (With The Laughing Face)
TTITLE6=Looking For Yesterday
TTITLE7=My Happiness
TTITLE8=Stardust
TTITLE9=It's A Lovely Day Tomorrow
TTITLE10=Somebody Loves Me
TTITLE11=Without A Song
TTITLE12=There Are Such Things
TTITLE13=I Could Make You Care
TTITLE14=Say It
TTITLE15=How Do You Do Without Me
TTITLE16=Little White Lies
TTITLE17=Night And Day
TTITLE18=It All Depends On You
TTITLE19=I'll Be Seeing You
EXTD=
EXTT0=
EXTT1=
EXTT2=
EXTT3=
EXTT4=
EXTT5=
EXTT6=
EXTT7=
EXTT8=
EXTT9=
EXTT10=
EXTT11=
EXTT12=
EXTT13=
EXTT14=
EXTT15=
EXTT16=
EXTT17=
EXTT18=
EXTT19=
PLAYORDER=
